Coordinates
version=1
nRows=14
nColumns=36
inDegrees=yes

Units are S.I. units (second, meters, Newtons, ...)
If the header above contains a line with 'inDegrees', this indicates whether rotational values are in degrees (yes) or radians (no).

endheader
time	pelvis_tilt	pelvis_list	pelvis_rotation	pelvis_tx	pelvis_ty	pelvis_tz	hip_flexion_r	hip_adduction_r	hip_rotation_r	knee_angle_r	knee_angle_r_beta	ankle_angle_r	subtalar_angle_r	mtp_angle_r	hip_flexion_l	hip_adduction_l	hip_rotation_l	knee_angle_l	knee_angle_l_beta	ankle_angle_l	subtalar_angle_l	mtp_angle_l	lumbar_extension	lumbar_bending	lumbar_rotation	arm_flex_r	arm_add_r	arm_rot_r	elbow_flex_r	pro_sup_r	arm_flex_l	arm_add_l	arm_rot_l	elbow_flex_l	pro_sup_l
      1.92000000	    -16.97598015	     -2.49861797	     -0.59606435	     -0.76090164	      1.33094969	     -0.57852820	     46.59075261	      1.37513608	      1.75018659	     74.36560935	      1.29792473	     -1.87879677	    -12.43611102	     -3.91456377	     37.87442395	     -1.52911062	      5.37958843	     63.16719487	      1.10247553	     -7.44172146	    -10.14509173	     -3.91456377	    -18.87728427	      2.69013243	     -2.77621183	     46.44140041	    -12.73553347	      8.70777749	    115.17648646	    109.78045372	     36.72502537	    -16.24989513	     12.17385903	    113.34774999	     99.46566002
      1.93000000	    -16.72213752	     -2.62898087	     -0.43085830	     -0.75289429	      1.33314828	     -0.57951949	     47.91030993	      1.02334012	      1.26609982	     74.74540178	      1.30455336	     -2.74547038	    -13.47244933	     -4.07657620	     39.23684141	     -1.51966085	      5.62283147	     63.61170266	      1.11023365	     -8.34064600	    -10.73867481	     -4.07657620	    -19.66468157	      2.94897722	     -2.88460300	     44.50476876	    -13.81559120	      8.03108886	    112.97583614	    109.74603165	     35.02926930	    -15.86944646	     11.30197024	    111.58488844	     99.10331096
      1.94000000	    -16.39406574	     -2.67034003	     -0.09154498	     -0.74437014	      1.33500050	     -0.58111619	     48.81118026	      0.37887040	      0.74244968	     74.50904512	      1.30042816	     -3.15796242	    -13.88125252	     -4.11032975	     40.25656138	     -1.23110045	      6.10553487	     63.40370785	      1.10660346	     -8.94231965	    -10.83746000	     -4.11032975	    -20.51574663	      3.17621178	     -3.13320711	     42.56813914	    -14.92623715	      7.36286220	    110.78166816	    109.57181885	     33.28736263	    -15.45727597	     10.44107947	    109.79928080	     98.84558781
      1.95000000	    -16.28067741	     -2.78109137	      0.13044676	     -0.73552721	      1.33589102	     -0.58224577	     49.66777036	     -0.02265775	      0.23836716	     73.57226689	      1.28407830	     -4.92453481	    -15.83922990	     -4.24401959	     41.32104039	     -1.10776489	      6.38347110	     62.66358540	      1.09368589	    -10.67352449	    -12.37072551	     -4.24401959	    -21.10378114	      3.41453244	     -3.20031851	     40.45747656	    -16.03087801	      6.69848284	    108.85441271	    109.30705970	     31.43214347	    -15.18601076	      9.80039112	    108.07618973	     98.60601260
      1.96000000	    -16.10738104	     -2.86584773	      0.17293629	     -0.72625601	      1.33607027	     -0.58230126	     50.19254925	     -0.15491443	      0.09249820	     72.16337922	      1.25948857	     -5.26422838	    -16.01437548	     -4.26216750	     42.04689228	     -1.31185535	      6.28474777	     61.39386325	      1.07152505	    -11.11872841	    -12.37310805	     -4.26216750	    -21.79080733	      3.46640008	     -3.15742703	     38.30240867	    -17.00797232	      6.14593468	    107.21037150	    109.15278224	     29.54325609	    -15.20606112	      9.32883944	    106.88826724	     98.45877215
      1.97000000	    -16.12631285	     -3.05179994	      0.10794823	     -0.71693551	      1.33492410	     -0.58183494	     50.77093882	     -0.00023032	      0.09576769	     70.33017164	      1.22749306	     -6.62759204	    -16.82260760	     -4.30397898	     42.99017100	     -1.84511124	      5.91870281	     59.97162403	      1.04670230	    -12.54956177	    -12.56308399	     -4.30397898	    -22.02422586	      3.56772455	     -2.82520155	     36.00557132	    -17.83544398	      5.02600207	    105.20452756	    108.95657837	     27.86076315	    -14.85191964	      8.54051071	    104.68747717	     98.21450378
      1.98000000	    -16.04195706	     -3.14205277	      0.09219440	     -0.70720042	      1.33318509	     -0.58176590	     50.98184751	     -0.00275219	      0.06499395	     68.00139540	      1.18684825	     -8.83339875	    -18.80316776	     -4.42817767	     43.53988388	     -2.12200511	      5.71198216	     58.04985699	      1.01316113	    -14.18494267	    -13.73656617	     -4.42817767	    -22.46187400	      3.53719537	     -2.18169747	     33.35546962	    -19.10824999	      3.78287903	    104.19758571	    108.89650426	     26.53480579	    -14.69032895	      8.73613348	    102.71035292	     98.11888601
      1.99000000	    -15.77046292	     -3.11435061	      0.06489097	     -0.69704119	      1.33079811	     -0.58229529	     50.80939419	     -0.18822796	      0.16607271	     65.46599523	      1.14259716	     -9.45124170	    -18.55299068	     -4.49089825	     43.64338445	     -2.20245603	      5.57256267	     55.80104719	      0.97391200	    -14.89556140	    -13.76379358	     -4.49089825	    -23.00657813	      3.51166891	     -2.01077912	     31.21722583	    -20.01445807	      3.08814500	    102.63135744	    108.78653898	     24.82614521	    -14.71293306	      8.24479604	    101.11263135	     97.93862613
      2.00000000	    -15.47325000	     -2.96946058	      0.06304793	     -0.68665077	      1.32743872	     -0.58272434	     50.48633472	     -0.47672909	      0.28961456	     62.68899301	      1.09412933	    -10.50567644	    -18.44725854	     -4.62046332	     43.54361660	     -2.15689213	      5.35826334	     53.22799698	      0.92900380	    -16.10464469	    -14.47335463	     -4.62046332	    -23.50475608	      3.32515221	     -1.72925669	     28.86034810	    -20.86909300	      2.08399103	    101.30302599	    108.96271177	     23.25418749	    -14.93365908	      8.21381997	     99.54182651	     97.77372802
      2.01000000	    -15.21802942	     -2.84397945	      0.09117744	     -0.67607919	      1.32289634	     -0.58276961	     50.07793337	     -0.70343483	      0.45651756	     59.73796243	      1.04262413	    -11.44657782	    -17.61402581	     -4.66165912	     43.40889564	     -2.22954284	      5.08688891	     50.52494400	      0.88182663	    -16.59245065	    -14.01298845	     -4.66165912	    -23.86855211	      3.14985238	     -1.74387210	     26.75300642	    -21.36342540	      1.28082388	     99.81919791	    108.92529914	     21.40612005	    -15.39831854	      7.80968628	     98.41406143	     97.56151195
      2.02000000	    -15.12988739	     -2.76242468	      0.07866456	     -0.66531671	      1.31676603	     -0.58261277	     49.74984957	     -0.81357004	      0.64814766	     56.69574791	      0.98952747	    -12.19125659	    -16.88161372	     -4.68133840	     43.42165277	     -2.36319535	      4.84037655	     47.81988563	      0.83461445	    -16.76805944	    -13.63581074	     -4.68133840	    -23.95921622	      2.98572233	     -1.76057088	     24.57926923	    -22.01061354	      0.74159164	     98.67041226	    108.85961652	     19.43772929	    -15.98718114	      7.43430189	     97.64225427	     97.40653665
      2.03000000	    -14.65173696	     -2.63885324	     -0.03416241	     -0.65430769	      1.31024758	     -0.58245147	     48.92293533	     -0.89823714	      0.94167559	     53.49474404	      0.93365942	    -14.28912960	    -15.71454252	     -4.72456162	     42.86820972	     -2.54476304	      4.48011237	     44.90381472	      0.78371941	    -17.60818680	    -12.88182060	     -4.72456162	    -24.39570690	      2.74136768	     -1.63069330	     22.52360940	    -22.49441011	     -0.19170207	     97.27038249	    108.98057955	     17.79307713	    -16.28880125	      6.70114239	     96.40577362	     97.17669589
      2.04000000	    -14.46217255	     -2.58293141	     -0.09516153	     -0.64308381	      1.30198470	     -0.58238571	     48.31542745	     -0.99334497	      1.12546678	     50.28342182	      0.87761127	    -16.07687427	    -14.60731502	     -4.75991148	     42.56230652	     -2.68905596	      4.32844974	     41.96979510	      0.73251111	    -18.07514947	    -12.30872754	     -4.75991148	    -24.40936295	      2.62151727	     -1.55806601	     20.38350213	    -23.00649591	     -0.81512298	     96.24499880	    109.04175767	     15.94095779	    -16.75632454	      6.11658387	     95.53730891	     97.02180718
      2.05000000	    -14.26115483	     -2.52805468	     -0.09558579	     -0.63161183	      1.29261011	     -0.58246177	     47.59631815	     -1.15700482	      1.19105367	     47.01974388	      0.82064934	    -18.17276847	    -13.67857959	     -4.78213982	     42.14156753	     -2.78600173	      4.20076131	     38.92465198	      0.67936334	    -18.79963442	    -11.72280026	     -4.78213982	    -24.34214806	      2.54255257	     -1.53642462	     18.23847032	    -23.36431606	     -1.60208475	     95.37731157	    109.34485081	     14.04733333	    -17.24261333	      5.52189165	     94.78134098	     97.03652197
